<?xml version="1.0" encoding="UTF-8"?><svg id="logo-adding-sobre-oscuro" xmlns="http://www.w3.org/2000/svg" xmlns:xlink="http://www.w3.org/1999/xlink" viewBox="0 0 2048 2048"><defs><style>.cls-1{fill:url(#linear-gradient-2);}.cls-2{fill:#fff;}.cls-3{fill:#0090f0;}.cls-4{fill:url(#linear-gradient);}</style><linearGradient id="linear-gradient" x1="1028.96" y1="589.84" x2="1453.95" y2="248.08" gradientUnits="userSpaceOnUse"><stop offset="0" stop-color="#006ca8"/><stop offset=".04" stop-color="#0072b4"/><stop offset=".12" stop-color="#007dca"/><stop offset=".22" stop-color="#0085db"/><stop offset=".35" stop-color="#008be7"/><stop offset=".52" stop-color="#008fee"/><stop offset="1" stop-color="#0090f0"/></linearGradient><linearGradient id="linear-gradient-2" x1="468.32" y1="734.22" x2="960.62" y2="295.72" gradientUnits="userSpaceOnUse"><stop offset="0" stop-color="#0090f0"/><stop offset=".39" stop-color="#008eed"/><stop offset=".59" stop-color="#008be6"/><stop offset=".74" stop-color="#0084d9"/><stop offset=".86" stop-color="#007bc6"/><stop offset=".97" stop-color="#006fae"/><stop offset="1" stop-color="#006ca8"/></linearGradient></defs><g><g><path class="cls-2" d="M235.02,1097.24l169.02,421.46h-28.17l-53.94-135.17H116.94l-54.54,135.17h-28.17l172.02-421.46h28.77Zm78.52,263.86l-91.7-238.47h-1.2l-95.3,238.47h188.2Z"/><path class="cls-2" d="M668.35,1453.77h-1.2c-12.79,24.01-28.77,42.01-47.95,54.01-19.18,12-42.55,18-70.13,18-23.18,0-43.15-4.33-59.94-12.99-16.78-8.65-30.57-20.26-41.36-34.83-10.79-14.55-18.79-31.38-23.97-50.47-5.2-19.08-7.79-39.05-7.79-59.91,0-22.43,2.79-43.39,8.39-62.87,5.59-19.48,14.08-36.3,25.47-50.47,11.39-14.17,25.67-25.38,42.85-33.65,17.17-8.26,37.36-12.4,60.54-12.4,12.38,0,24.57,1.68,36.56,5.02,11.99,3.35,23.08,8.17,33.26,14.46,10.19,6.3,19.08,14.17,26.67,23.61,7.59,9.44,13.38,20.07,17.38,31.88h1.2v-185.94h22.78v421.46h-22.78v-64.93Zm-114.48,52.54c19.57,0,36.46-3.93,50.65-11.81,14.18-7.87,25.97-18.3,35.36-31.28,9.38-12.99,16.38-27.84,20.98-44.57,4.59-16.72,6.89-33.74,6.89-51.06s-2.3-34.92-6.89-51.65c-4.6-16.72-11.49-31.67-20.68-44.86-9.2-13.18-21.08-23.7-35.66-31.58-14.59-7.87-31.67-11.8-51.25-11.8s-37.76,3.84-52.14,11.51c-14.38,7.67-26.28,18-35.66,30.99-9.39,12.99-16.18,27.95-20.38,44.86-4.2,16.92-6.29,34.44-6.29,52.54s2.29,34.93,6.89,51.65c4.59,16.73,11.58,31.58,20.98,44.57,9.38,12.99,21.28,23.32,35.66,30.99,14.38,7.67,31.56,11.51,51.54,11.51Z"/><path class="cls-2" d="M771.44,1097.24h184.6c27.57,0,53.24,4.33,77.02,12.99,23.77,8.66,44.35,21.65,61.73,38.96,17.38,17.32,30.96,38.96,40.76,64.93,9.79,25.97,14.68,56.47,14.68,91.49,0,30.7-4,59.03-11.99,85-8,25.97-20.08,48.4-36.26,67.29-16.18,18.89-36.36,33.75-60.53,44.57-24.18,10.83-52.65,16.23-85.41,16.23h-184.6v-421.46Zm94.1,343.55h83.91c13.58,0,26.77-2.16,39.56-6.49,12.78-4.33,24.17-11.51,34.16-21.55,9.98-10.04,17.98-23.11,23.98-39.25,5.99-16.13,8.99-35.8,8.99-59.03,0-21.25-2.1-40.43-6.29-57.55-4.2-17.12-11.09-31.78-20.68-43.98-9.59-12.19-22.28-21.55-38.06-28.04-15.79-6.49-35.27-9.74-58.44-9.74h-67.13v265.63Z"/><path class="cls-2" d="M1294.08,1166.3h-85.11v-69.06h85.11v69.06Zm-85.11,47.22h85.11v305.18h-85.11v-305.18Z"/><path class="cls-2" d="M1361.21,1213.52h80.91v42.5h1.8c10.79-17.31,24.77-30.1,41.96-38.37,17.17-8.26,34.76-12.4,52.74-12.4,22.78,0,41.45,3.05,56.04,9.15,14.58,6.11,26.07,14.56,34.46,25.38,8.39,10.83,14.28,24.01,17.68,39.55,3.39,15.55,5.09,32.76,5.09,51.65v187.71h-85.11v-172.36c0-25.18-4.1-43.98-12.29-56.37-8.19-12.39-22.28-18.59-42.25-18.59-23.18,0-39.96,6.79-50.35,20.36-10.39,13.58-15.58,35.92-15.58,67v159.97h-85.11v-305.18Z"/><path class="cls-2" d="M2014.5,1499.22c0,8.26-.7,17.41-2.1,27.45-1.4,10.03-4.1,20.07-8.09,30.1-4,10.03-9.59,19.67-16.78,28.92-7.19,9.24-16.78,17.51-28.77,24.79-11.99,7.28-26.58,13.08-43.75,17.41-17.19,4.33-37.56,6.49-61.13,6.49-15.19,0-30.67-1.87-46.45-5.61-15.79-3.74-30.17-9.54-43.15-17.41-12.99-7.88-23.78-18-32.37-30.4-8.6-12.4-13.49-27.25-14.69-44.57h85.11c3.97,15.73,11.72,26.65,23.26,32.76,11.54,6.1,24.86,9.15,39.98,9.15,23.47,0,40.77-7.08,51.91-21.25,11.13-14.17,16.5-32.27,16.11-54.31v-40.14h-1.2c-9.2,16.14-22.28,28.04-39.26,35.71-16.99,7.67-34.87,11.51-53.64,11.51-23.18,0-43.15-4.03-59.94-12.1-16.78-8.06-30.57-19.08-41.36-33.06-10.79-13.96-18.68-30.3-23.67-48.99-5-18.69-7.49-38.46-7.49-59.32,0-19.67,2.89-38.66,8.69-56.96,5.79-18.3,14.28-34.43,25.47-48.4,11.18-13.96,25.07-25.09,41.65-33.35,16.58-8.26,35.66-12.4,57.24-12.4,20.38,0,38.25,3.74,53.64,11.22,15.38,7.48,28.26,20.07,38.66,37.78h1.2v-40.73h80.91v285.7Zm-153.44-52.54c11.99,0,22.57-2.36,31.76-7.08,9.19-4.72,16.78-11.01,22.78-18.89,5.99-7.87,10.49-16.82,13.49-26.86,3-10.04,4.5-20.56,4.5-31.58,0-12.19-1.2-24-3.6-35.42-2.4-11.41-6.4-21.44-11.99-30.1-5.6-8.65-13.09-15.54-22.48-20.66-9.39-5.11-20.88-7.67-34.46-7.67-11.99,0-22.28,2.36-30.87,7.08-8.6,4.72-15.79,11.12-21.58,19.18-5.8,8.07-9.99,17.32-12.59,27.74-2.6,10.43-3.89,21.35-3.89,32.76s1.1,21.94,3.3,32.76c2.19,10.83,5.99,20.57,11.39,29.22,5.39,8.66,12.48,15.74,21.28,21.25,8.78,5.51,19.78,8.26,32.97,8.26Z"/></g><g><path class="cls-4" d="M1482.67,362.27c-14.27-37.83-34.05-69.36-59.37-94.6-25.33-25.22-55.31-44.14-89.94-56.75-34.64-12.61-72.03-18.92-112.21-18.92h-267.43l43.28,113.99,92.32-.36v-.13h97.79c33.76,0,62.13,4.73,85.13,14.2,22.99,9.45,41.47,23.09,55.46,40.85,13.96,17.78,24,39.13,30.11,64.07,6.12,24.94,9.18,52.88,9.18,83.85,0,33.83-4.37,62.5-13.11,86-8.72,23.52-20.39,42.57-34.92,57.18-14.55,14.63-31.14,25.09-49.78,31.4-18.64,6.31-37.85,9.45-57.62,9.45l-99.82-.2,43.04,114.31,66.38-.59c47.74,0,89.22-7.88,124.44-23.65,35.21-15.75,64.62-37.4,88.19-64.93,23.58-27.51,41.17-60.19,52.82-98.03,11.65-37.83,17.46-79.11,17.46-123.83,0-51.03-7.12-95.46-21.39-133.3Z"/><path class="cls-1" d="M921.87,192h-140.57l-236.63,614.01h138.83l41.84-116.98,42.96-120.37h-.09l8.83-24.47,72.39-200.83,72.46-151.36Z"/><path class="cls-3" d="M1155.03,806.01L921.87,192h-140.57l69.86,151.36,71.21,204.16,42.96,121.77h.21l15.8,44.84,173.7,91.89Z"/></g></g><g><path class="cls-2" d="M74.46,1780.6c19.42,8.12,33.9,14.13,33.9,38.14,0,22.78-14.83,37.26-37.96,37.26s-36.9-17.13-36.37-40.61h11.3c-.18,16.6,6.71,30.37,24.9,30.37,16.07,0,26.66-10.24,26.66-26.66,0-19.95-14.48-23.13-29.66-29.13-17.83-7.06-30.55-15.01-30.55-36.2s12.89-36.55,34.43-36.55,34.26,14.3,33.73,35.14h-11.12c.71-14.66-7.95-24.9-22.78-24.9s-22.78,11.12-22.78,25.6c0,13.07,4.24,18.19,16.07,23.31l10.24,4.24Z"/><path class="cls-2" d="M127.09,1852.82v-132.43h60.03v10.24h-48.56v47.67h44.14v10.24h-44.14v54.03h49.44v10.24h-60.92Z"/><path class="cls-2" d="M205.48,1852.82v-132.43h60.03v10.24h-48.56v47.67h44.14v10.24h-44.14v54.03h49.44v10.24h-60.92Z"/><path class="cls-2" d="M384.35,1720.39h12.01l-35.31,76.1v56.33h-11.48v-56.33l-34.96-76.1h12.71l27.9,63.04,29.13-63.04Z"/><path class="cls-2" d="M409.78,1782.9c0-27.19,3.71-65.68,38.85-65.68,38.85,0,39.02,43.44,39.02,72.22s-2.12,66.57-39.38,66.57-38.49-45.03-38.49-73.1Zm66.39,3.88c0-19.42,.18-59.33-28.07-59.33-26.66,0-26.84,39.02-26.84,58.09,0,20.31-1.06,60.21,28.07,60.21s26.84-40.26,26.84-58.98Z"/><path class="cls-2" d="M510.61,1720.39h11.48v96.06c0,18.72,4.24,29.31,24.19,29.31s25.25-12.54,25.25-30.37v-95h11.48v92.17c0,25.78-7.77,43.44-36.37,43.44-25.43,0-36.02-13.95-36.02-38.14v-97.47Z"/><path class="cls-2" d="M649.04,1852.82v-132.43h11.48v132.43h-11.48Z"/><path class="cls-2" d="M748.98,1834.11h.35v-113.71h11.48v132.43h-13.95l-49.09-113.36h-.35v113.36h-11.48v-132.43h14.3l48.73,113.71Z"/><path class="cls-2" d="M862.52,1720.39l35.49,132.43h-11.65l-10.42-40.79h-40.26l-10.77,40.79h-11.12l35.49-132.43h13.24Zm10.95,81.4l-17.48-66.92h-.35l-17.48,66.92h35.31Z"/><path class="cls-2" d="M950.1,1852.82v-132.43h28.96c9.01,0,19.42,.88,26.49,7.24,7.24,6.36,10.06,15.36,10.06,25.07,0,13.24-4.94,25.25-18.01,30.02v.35c15.36,4.06,21.72,16.07,21.72,31.61,0,33.55-22.42,38.14-51.03,38.14h-18.19Zm23.31-74.51c18.72,0,30.72-3.88,30.72-25.25s-14.48-22.42-31.78-22.42h-10.77v47.67h11.83Zm-11.83,10.24v54.03h14.3c20.31,0,31.96-5.47,31.96-28.07,0-23.84-15.01-25.96-34.25-25.96h-12.01Z"/><path class="cls-2" d="M1050.04,1790.49v62.33h-11.48v-132.43h25.6c24.19,0,40.79,7.06,40.79,33.9,0,12.89-5.47,28.07-19.42,31.08v.35c15.36,3.88,17.48,15.71,17.66,32.31,.35,6.36-.53,29.66,6,33.2v1.59h-12.54c-4.94-11.12-4.59-33.73-5.3-43.44-1.24-17.66-14.48-18.89-29.49-18.89h-11.83Zm0-10.24h20.13c3.88,0,23.31-1.41,23.31-25.07,0-19.42-8.83-24.54-26.84-24.54h-16.6v49.62Z"/><path class="cls-2" d="M1129.68,1852.82v-132.43h11.48v132.43h-11.48Z"/><path class="cls-2" d="M1200.31,1797.38v-10.24h39.9v65.68h-9.18l-1.06-13.6h-.35c-6.53,11.3-15.54,16.77-28.78,16.77-37.26,0-37.79-45.2-37.79-72.04,0-28.25,1.94-66.74,39.38-66.74,22.07,0,35.84,18.01,35.84,39.38h-10.95c-1.94-14.3-7.42-29.13-24.54-29.13-29.31,0-28.25,40.96-28.25,59.15s.35,59.15,27.19,59.15c25.07,0,26.31-29.49,27.02-48.38h-28.43Z"/><path class="cls-2" d="M1265.11,1852.82v-132.43h11.48v56.33h51.21v-56.33h11.48v132.43h-11.48v-65.86h-51.21v65.86h-11.48Z"/><path class="cls-2" d="M1354.82,1730.63v-10.24h71.51v10.24h-30.02v122.19h-11.48v-122.19h-30.02Z"/><path class="cls-2" d="M1481.07,1852.82v-132.43h60.92v10.24h-49.44v47.67h44.14v10.24h-44.14v64.27h-11.48Z"/><path class="cls-2" d="M1560.17,1720.39h11.48v96.06c0,18.72,4.24,29.31,24.19,29.31s25.25-12.54,25.25-30.37v-95h11.48v92.17c0,25.78-7.77,43.44-36.37,43.44-25.43,0-36.02-13.95-36.02-38.14v-97.47Z"/><path class="cls-2" d="M1648.99,1730.63v-10.24h71.51v10.24h-30.02v122.19h-11.48v-122.19h-30.02Z"/><path class="cls-2" d="M1736.75,1720.39h11.48v96.06c0,18.72,4.24,29.31,24.19,29.31s25.25-12.54,25.25-30.37v-95h11.48v92.17c0,25.78-7.77,43.44-36.37,43.44-25.43,0-36.02-13.95-36.02-38.14v-97.47Z"/><path class="cls-2" d="M1844.64,1790.49v62.33h-11.48v-132.43h25.6c24.19,0,40.79,7.06,40.79,33.9,0,12.89-5.47,28.07-19.42,31.08v.35c15.36,3.88,17.48,15.71,17.66,32.31,.35,6.36-.53,29.66,6,33.2v1.59h-12.54c-4.94-11.12-4.59-33.73-5.3-43.44-1.24-17.66-14.48-18.89-29.49-18.89h-11.83Zm0-10.24h20.13c3.88,0,23.31-1.41,23.31-25.07,0-19.42-8.83-24.54-26.84-24.54h-16.6v49.62Z"/><path class="cls-2" d="M1922.15,1852.82v-132.43h60.03v10.24h-48.56v47.67h44.14v10.24h-44.14v54.03h49.44v10.24h-60.92Z"/><path class="cls-2" d="M2002.32,1852.82v-15.54h12.18v15.54h-12.18Z"/></g></svg>