<svg xmlns="http://www.w3.org/2000/svg" viewBox="0 0 64 64">
  <!-- Blue square background with rounded corners -->
  <rect width="64" height="64" rx="10" fill="#008FF0"/>
  <!--
    AD monogram paths — original paths span roughly:
      x: 545 → 1503  (width ~958), center ~1024
      y: 192 → 806   (height ~614), center ~499
    Scale so 958 wide fits in 48px (with 8px padding each side): 48/958 ≈ 0.0501
    Then center: translate(32,32) scale(0.0501) translate(-1024,-499)
  -->
  <g transform="translate(32,32) scale(0.0501) translate(-1024,-499)">
    <path fill="#ffffff" d="M1482.67,362.27c-14.27-37.83-34.05-69.36-59.37-94.6-25.33-25.22-55.31-44.14-89.94-56.75-34.64-12.61-72.03-18.92-112.21-18.92h-267.43l43.28,113.99,92.32-.36v-.13h97.79c33.76,0,62.13,4.73,85.13,14.2,22.99,9.45,41.47,23.09,55.46,40.85,13.96,17.78,24,39.13,30.11,64.07,6.12,24.94,9.18,52.88,9.18,83.85,0,33.83-4.37,62.5-13.11,86-8.72,23.52-20.39,42.57-34.92,57.18-14.55,14.63-31.14,25.09-49.78,31.4-18.64,6.31-37.85,9.45-57.62,9.45l-99.82-.2,43.04,114.31,66.38-.59c47.74,0,89.22-7.88,124.44-23.65,35.21-15.75,64.62-37.4,88.19-64.93,23.58-27.51,41.17-60.19,52.82-98.03,11.65-37.83,17.46-79.11,17.46-123.83,0-51.03-7.12-95.46-21.39-133.3Z"/>
    <path fill="#ffffff" d="M921.87,192h-140.57l-236.63,614.01h138.83l41.84-116.98,42.96-120.37h-.09l8.83-24.47,72.39-200.83,72.46-151.36Z"/>
    <path fill="#ffffff" d="M1155.03,806.01L921.87,192h-140.57l69.86,151.36,71.21,204.16,42.96,121.77h.21l15.8,44.84,173.7,91.89Z"/>
  </g>
</svg>
